<mxfile host="app.diagrams.net">
  <diagram name="Mapping Integration Module">
    <mxGraphModel dx="1125" dy="625" grid="1" gridSize="10" guides="1" tooltips="1" connect="1" arrows="1" fold="1"
     page="1" pageScale="1" pageWidth="827" pageHeight="1169" math="0" shadow="0">
      <root>
        <mxCell id="0" />
        <mxCell id="1" parent="0" />
        <!-- AbstractMappingController -->
        <mxCell id="2" value="AbstractMappingController" style="rounded=0;whiteSpace=wrap;html=1;" vertex="1" parent="1">
          <mxGeometry x="100" y="100" width="180" height="120" as="geometry" />
        </mxCell>
        <mxCell id="3" value="+ getDirections(origin: String, destination: String, type: String, withTraffic: boolean):
         ResponseEntity&lt;DirectionsResponseDTO&gt;" style="rounded=0;whiteSpace=wrap;html=1;" vertex="1" parent="2">
          <mxGeometry x="0" y="40" width="180" height="40" as="geometry" />
        </mxCell>
        <mxCell id="4" value="+ getReverseGeocoding(lat: double, lng: double): ResponseEntity&lt;ReverseGeocodingResponseDTO&gt;" style="rounded=0;whiteSpace=wrap;html=1;" vertex="1" parent="2">
          <mxGeometry x="0" y="80" width="180" height="40" as="geometry" />
        </mxCell>
        <!-- MappingController -->
        <mxCell id="5" value="MappingController" style="rounded=0;whiteSpace=wrap;html=1;" vertex="1" parent="1">
          <mxGeometry x="100" y="260" width="180" height="40" as="geometry" />
        </mxCell>
        <!-- AbstractMappingService -->
        <mxCell id="6" value="AbstractMappingService" style="rounded=0;whiteSpace=wrap;html=1;" vertex="1" parent="1">
          <mxGeometry x="400" y="100" width="180" height="120" as="geometry" />
        </mxCell>
        <mxCell id="7" value="+ getDirections(request: DirectionsRequestDTO): DirectionsResponseDTO" style="rounded=0;
        whiteSpace=wrap;html=1;" vertex="1" parent="6">
          <mxGeometry x="0" y="40" width="180" height="40" as="geometry" />
        </mxCell>
        <mxCell id="8" value="+ getReverseGeocoding(request: ReverseGeocodingRequestDTO): ReverseGeocodingResponseDTO"
         style="rounded=0;whiteSpace=wrap;html=1;" vertex="1" parent="6">
          <mxGeometry x="0" y="80" width="180" height="40" as="geometry" />
        </mxCell>
        <!-- MappingService -->
        <mxCell id="9" value="MappingService" style="rounded=0;whiteSpace=wrap;html=1;" vertex="1" parent="1">
          <mxGeometry x="400" y="260" width="180" height="40" as="geometry" />
        </mxCell>
        <!-- DirectionsRequestDTO -->
        <mxCell id="10" value="DirectionsRequestDTO" style="rounded=0;whiteSpace=wrap;html=1;" vertex="1" parent="1">
          <mxGeometry x="700" y="100" width="180" height="80" as="geometry" />
        </mxCell>
        <mxCell id="11" value="- origin: String" style="rounded=0;whiteSpace=wrap;html=1;" vertex="1" parent="10">
          <mxGeometry x="0" y="40" width="180" height="20" as="geometry" />
        </mxCell>
        <mxCell id="12" value="- destination: String" style="rounded=0;whiteSpace=wrap;html=1;" vertex="1" parent="10">
          <mxGeometry x="0" y="60" width="180" height="20" as="geometry" />
        </mxCell>
        <!-- DirectionsResponseDTO -->
        <mxCell id="13" value="DirectionsResponseDTO" style="rounded=0;whiteSpace=wrap;html=1;" vertex="1" parent="1">
          <mxGeometry x="700" y="220" width="180" height="40" as="geometry" />
        </mxCell>
        <!-- ReverseGeocodingRequestDTO -->
        <mxCell id="14" value="ReverseGeocodingRequestDTO" style="rounded=0;whiteSpace=wrap;html=1;" vertex="1" parent="1">
          <mxGeometry x="700" y="300" width="180" height="40" as="geometry" />
        </mxCell>
        <!-- ReverseGeocodingResponseDTO -->
        <mxCell id="15" value="ReverseGeocodingResponseDTO" style="rounded=0;whiteSpace=wrap;html=1;" vertex="1" parent="1">
          <mxGeometry x="700" y="380" width="180" height="40" as="geometry" />
        </mxCell>
        <!-- AppConfig -->
        <mxCell id="16" value="AppConfig" style="rounded=0;whiteSpace=wrap;html=1;" vertex="1" parent="1">
          <mxGeometry x="100" y="380" width="180" height="40" as="geometry" />
        </mxCell>
        <!-- MappingApplication -->
        <mxCell id="17" value="MappingApplication" style="rounded=0;whiteSpace=wrap;html=1;" vertex="1" parent="1">
          <mxGeometry x="100" y="460" width="180" height="40" as="geometry" />
        </mxCell>
        <!-- Associations -->
        <mxCell id="18" style="endArrow=block;html=1;rounded=0;" edge="1" parent="1" source="2" target="6">
          <mxGeometry relative="1" as="geometry" />
        </mxCell>
        <mxCell id="19" style="endArrow=block;html=1;rounded=0;" edge="1" parent="1" source="5" target="2">
          <mxGeometry relative="1" as="geometry" />
        </mxCell>
        <mxCell id="20" style="endArrow=block;html=1;rounded=0;" edge="1" parent="1" source="9" target="6">
          <mxGeometry relative="1" as="geometry" />
        </mxCell>
        <mxCell id="21" style="endArrow=block;html=1;rounded=0;" edge="1" parent="1" source="10" target="6">
          <mxGeometry relative="1" as="geometry" />
        </mxCell>
        <mxCell id="22" style="endArrow=block;html=1;rounded=0;" edge="1" parent="1" source="13" target="6">
          <mxGeometry relative="1" as="geometry" />
        </mxCell>
        <mxCell id="23" style="endArrow=block;html=1;rounded=0;" edge="1" parent="1" source="14" target="6">
          <mxGeometry relative="1" as="geometry" />
        </mxCell>
        <mxCell id="24" style="endArrow=block;html=1;rounded=0;" edge="1" parent="1" source="15" target="6">
          <mxGeometry relative="1" as="geometry" />
        </mxCell>
        <mxCell id="25" style="endArrow=block;html=1;rounded=0;" edge="1" parent="1" source="5" target="16">
          <mxGeometry relative="1" as="geometry" />
        </mxCell>
        <mxCell id="26" style="endArrow=block;html=1;rounded=0;" edge="1" parent="1" source="5" target="17">
          <mxGeometry relative="1" as="geometry" />
        </mxCell>
      </root>
    </mxGraphModel>
  </diagram>
</mxfile>
